<?xml version="1.0" encoding="UTF-8" standalone="no"?>
<svg width="24px" height="24px" viewBox="0 0 24 24" version="1.1" xmlns="http://www.w3.org/2000/svg" xmlns:xlink="http://www.w3.org/1999/xlink">
    <!-- Generator: Sketch 41.2 (35397) - http://www.bohemiancoding.com/sketch -->
    <title>telephone</title>
    <desc>Created with Sketch.</desc>
    <defs></defs>
    <g id="Page-1" stroke="none" stroke-width="1" fill="none" fill-rule="evenodd">
        <g id="Home-Page" transform="translate(-790.000000, -976.000000)" fill="#000000">
            <g id="1300-12367--+-telephone-2" transform="translate(790.000000, 971.000000)">
                <path d="M24.0000629,7.86105567 C24.0000629,7.80549997 23.9722851,7.72216642 23.9445072,7.66661072 C23.9167294,7.55549932 23.805618,7.44438791 23.6945066,7.38883221 L17.7500466,5.02771491 C17.5000459,4.94438136 17.2222674,5.05549276 17.111156,5.27771556 L13.8333696,11.8332883 C13.7222582,12.0277333 13.7778139,12.2499561 13.9167032,12.4166232 L17.111156,15.611076 C15.4722628,18.2499718 13.2500347,20.4999777 10.6111389,22.1388709 L7.41668612,18.9166402 C7.25001901,18.777751 7.02779621,18.7221953 6.83335125,18.8333067 L0.277778506,22.111093 C0.0555557013,22.2222044 -0.0555557013,22.499983 0.0277778506,22.7499836 L2.38889515,28.6944436 C2.44445086,28.805555 2.52778441,28.9166664 2.66667366,28.9722221 C2.72222936,29 2.80556291,29 2.86111861,29 C2.91667432,29 2.97223002,29 3.05556357,28.9722221 C13.944481,27.6111075 22.6111704,18.9721959 23.9722851,8.05550063 C24.0000629,7.97216707 24.0000629,7.91661137 24.0000629,7.86105567 Z" id="telephone"></path>
            </g>
        </g>
    </g>
</svg>